<svg width="305" height="95" viewBox="0 0 305 95" fill="none" xmlns="http://www.w3.org/2000/svg">
<rect y="45" width="7" height="44" rx="3.5" fill="black"/>
<rect y="52" width="7" height="44" rx="3.5" transform="rotate(-90 0 52)" fill="black"/>
<rect x="37" y="8" width="7" height="44" rx="3.5" fill="black"/>
<rect x="37" y="15" width="7" height="44" rx="3.5" transform="rotate(-90 37 15)" fill="black"/>
<circle cx="18.5" cy="28.5" r="14.5" fill="black"/>
<path d="M129.864 34.3636C129.523 31.4848 128.14 29.25 125.716 27.6591C123.292 26.0682 120.318 25.2727 116.795 25.2727C114.22 25.2727 111.966 25.6894 110.034 26.5227C108.121 27.3561 106.625 28.5019 105.545 29.9602C104.485 31.4186 103.955 33.0758 103.955 34.9318C103.955 36.4848 104.324 37.8201 105.062 38.9375C105.82 40.036 106.786 40.9545 107.96 41.6932C109.134 42.4129 110.366 43.0095 111.653 43.483C112.941 43.9375 114.125 44.3068 115.205 44.5909L121.114 46.1818C122.629 46.5795 124.314 47.1288 126.17 47.8295C128.045 48.5303 129.835 49.4867 131.54 50.6989C133.263 51.892 134.684 53.4261 135.801 55.3011C136.919 57.1761 137.477 59.4773 137.477 62.2045C137.477 65.3485 136.653 68.1894 135.006 70.7273C133.377 73.2652 130.991 75.2822 127.847 76.7784C124.722 78.2746 120.924 79.0227 116.455 79.0227C112.288 79.0227 108.68 78.3504 105.631 77.0057C102.6 75.661 100.214 73.786 98.4716 71.3807C96.7481 68.9754 95.7727 66.1818 95.5455 63H102.818C103.008 65.197 103.746 67.0152 105.034 68.4545C106.341 69.875 107.989 70.9356 109.977 71.6364C111.985 72.3182 114.144 72.6591 116.455 72.6591C119.144 72.6591 121.559 72.2235 123.699 71.3523C125.839 70.4621 127.534 69.2311 128.784 67.6591C130.034 66.0682 130.659 64.2121 130.659 62.0909C130.659 60.1591 130.119 58.5871 129.04 57.375C127.96 56.1629 126.54 55.178 124.778 54.4205C123.017 53.6629 121.114 53 119.068 52.4318L111.909 50.3864C107.364 49.0795 103.765 47.214 101.114 44.7898C98.4621 42.3655 97.1364 39.1932 97.1364 35.2727C97.1364 32.0151 98.017 29.1742 99.7784 26.75C101.559 24.3068 103.945 22.4129 106.938 21.0682C109.949 19.7045 113.311 19.0227 117.023 19.0227C120.773 19.0227 124.106 19.6951 127.023 21.0398C129.939 22.3655 132.25 24.1837 133.955 26.4943C135.678 28.8049 136.587 31.428 136.682 34.3636H129.864ZM167.129 34.3636V40.0455H144.516V34.3636H167.129ZM151.107 23.9091H157.811V65.5C157.811 67.3939 158.086 68.8144 158.635 69.7614C159.203 70.6894 159.923 71.3144 160.794 71.6364C161.684 71.9394 162.622 72.0909 163.607 72.0909C164.345 72.0909 164.951 72.053 165.425 71.9773C165.898 71.8826 166.277 71.8068 166.561 71.75L167.925 77.7727C167.47 77.9432 166.836 78.1136 166.021 78.2841C165.207 78.4735 164.175 78.5682 162.925 78.5682C161.031 78.5682 159.175 78.161 157.357 77.3466C155.557 76.5322 154.061 75.2917 152.868 73.625C151.694 71.9583 151.107 69.8561 151.107 67.3182V23.9091ZM195.041 78.9091C190.837 78.9091 187.21 77.9811 184.161 76.125C181.13 74.25 178.791 71.6364 177.143 68.2841C175.515 64.9129 174.7 60.9924 174.7 56.5227C174.7 52.053 175.515 48.1136 177.143 44.7045C178.791 41.2765 181.083 38.6061 184.018 36.6932C186.973 34.7614 190.42 33.7955 194.359 33.7955C196.632 33.7955 198.876 34.1742 201.092 34.9318C203.308 35.6894 205.325 36.9205 207.143 38.625C208.962 40.3106 210.411 42.5455 211.49 45.3295C212.57 48.1136 213.109 51.5417 213.109 55.6136V58.4545H179.473V52.6591H206.291C206.291 50.197 205.799 48 204.814 46.0682C203.848 44.1364 202.465 42.6117 200.666 41.4943C198.886 40.3769 196.784 39.8182 194.359 39.8182C191.689 39.8182 189.378 40.4811 187.428 41.8068C185.496 43.1136 184.009 44.8182 182.967 46.9205C181.926 49.0227 181.405 51.2765 181.405 53.6818V57.5455C181.405 60.8409 181.973 63.6345 183.109 65.9261C184.265 68.1989 185.865 69.9318 187.911 71.125C189.956 72.2992 192.333 72.8864 195.041 72.8864C196.803 72.8864 198.393 72.6402 199.814 72.1477C201.253 71.6364 202.494 70.8788 203.536 69.875C204.577 68.8523 205.382 67.5833 205.95 66.0682L212.428 67.8864C211.746 70.0833 210.6 72.0152 208.99 73.6818C207.38 75.3295 205.392 76.6174 203.024 77.5455C200.657 78.4545 197.996 78.9091 195.041 78.9091ZM223.308 94.3636V34.3636H229.786V41.2955H230.581C231.073 40.5379 231.755 39.572 232.626 38.3977C233.517 37.2045 234.786 36.1439 236.433 35.2159C238.1 34.2689 240.354 33.7955 243.195 33.7955C246.869 33.7955 250.107 34.714 252.911 36.5511C255.714 38.3883 257.901 40.9924 259.473 44.3636C261.045 47.7348 261.831 51.7121 261.831 56.2955C261.831 60.9167 261.045 64.9223 259.473 68.3125C257.901 71.6837 255.723 74.2973 252.939 76.1534C250.155 77.9905 246.945 78.9091 243.308 78.9091C240.505 78.9091 238.261 78.4451 236.575 77.517C234.89 76.5701 233.592 75.5 232.683 74.3068C231.774 73.0947 231.073 72.0909 230.581 71.2955H230.013V94.3636H223.308ZM229.899 56.1818C229.899 59.4773 230.382 62.3845 231.348 64.9034C232.314 67.4034 233.725 69.3636 235.581 70.7841C237.437 72.1856 239.71 72.8864 242.399 72.8864C245.202 72.8864 247.541 72.1477 249.416 70.6705C251.31 69.1742 252.731 67.1667 253.678 64.6477C254.643 62.1098 255.126 59.2879 255.126 56.1818C255.126 53.1136 254.653 50.3485 253.706 47.8864C252.778 45.4053 251.367 43.4451 249.473 42.0057C247.598 40.5473 245.24 39.8182 242.399 39.8182C239.672 39.8182 237.38 40.5095 235.524 41.892C233.668 43.2557 232.267 45.1686 231.32 47.6307C230.373 50.0739 229.899 52.9242 229.899 56.1818Z" fill="black"/>
</svg>
